0.11m3min_grf.mot
version=1
nRows=30
nColumns 19
inDegrees=yes
endheader
time	1_ground_force_vx	1_ground_force_vy	1_ground_force_vz	1_ground_force_px	1_ground_force_py	1_ground_force_pz	1_ground_torque_x	1_ground_torque_y	1_ground_torque_z	2_ground_force_vx	2_ground_force_vy	2_ground_force_vz	2_ground_force_px	2_ground_force_py	2_ground_force_pz	2_ground_torque_x	2_ground_torque_y	2_ground_torque_z
            1.253500	           15.834622	         1203.836745	          -83.473716	           -0.265134	            0.006122	           -0.383083	            0.020682	            1.572367	           -0.109028	           41.314072	         1076.042611	           83.269932	           -0.287248	            0.005320	           -0.662075	            0.065648	            1.709835	            0.132316
            1.254000	           14.965918	         1201.129355	          -82.749454	           -0.265139	            0.006122	           -0.383161	            0.017239	            1.383583	           -0.095319	           40.857547	         1072.547297	           81.755947	           -0.287224	            0.005319	           -0.661755	            0.070867	            1.860319	            0.141805
            1.254500	           13.090115	         1199.860946	          -81.328663	           -0.265054	            0.006121	           -0.382968	            0.011964	            1.096670	           -0.074334	           41.517559	         1071.264971	           80.530938	           -0.286998	            0.005320	           -0.661826	            0.056475	            1.457218	            0.109544
            1.255000	           11.719631	         1196.608807	          -79.642498	           -0.264963	            0.006122	           -0.383085	            0.009333	            0.952949	           -0.063425	           42.231919	         1067.955699	           79.721027	           -0.287031	            0.005318	           -0.661514	            0.029242	            0.739477	            0.055201
            1.255500	           10.714275	         1195.341549	          -78.453159	           -0.264936	            0.006121	           -0.382974	            0.009003	            1.004403	           -0.065921	           42.339375	         1064.090573	           79.237907	           -0.286910	            0.005318	           -0.661405	            0.007404	            0.186085	            0.013857
            1.256000	           10.990791	         1190.473476	          -78.245421	           -0.264816	            0.006122	           -0.383140	            0.012103	            1.310903	           -0.086161	           41.084152	         1061.325843	           78.665452	           -0.286879	            0.005319	           -0.661415	            0.009981	            0.257843	            0.019111
            1.256500	           11.448675	         1187.230688	          -78.719039	           -0.264608	            0.006122	           -0.383171	            0.016481	            1.709135	           -0.113324	           39.267325	         1058.375505	           77.951803	           -0.286731	            0.005319	           -0.661269	            0.030908	            0.833057	            0.061357
            1.257000	           11.861482	         1182.905374	          -78.967890	           -0.264641	            0.006123	           -0.383346	            0.017512	            1.746391	           -0.116585	           37.916310	         1056.163512	           77.146710	           -0.286612	            0.005319	           -0.661333	            0.049444	            1.377270	            0.100602
            1.257500	           10.900429	         1179.478402	          -78.567487	           -0.264430	            0.006123	           -0.383389	            0.014121	            1.527911	           -0.101777	           36.945883	         1052.297174	           75.913200	           -0.286502	            0.005319	           -0.661157	            0.055669	            1.585566	            0.114383
            1.258000	            9.437153	         1176.047792	          -77.340419	           -0.264369	            0.006123	           -0.383259	            0.009796	            1.220738	           -0.080279	           37.380998	         1048.435576	           74.772948	           -0.286507	            0.005318	           -0.661005	            0.039031	            1.094711	            0.078073
            1.258500	            7.975392	         1171.172895	          -75.615131	           -0.264385	            0.006124	           -0.383458	            0.007250	            1.064635	           -0.068737	           38.235782	         1045.127815	           73.681423	           -0.286435	            0.005318	           -0.660861	            0.014354	            0.392351	            0.027661
            1.259000	            6.971327	         1167.200185	          -74.116377	           -0.264180	            0.006123	           -0.383390	            0.007358	            1.231941	           -0.078227	           38.721236	         1040.344405	           72.913291	           -0.286312	            0.005319	           -0.660877	           -0.002029	           -0.054524	           -0.003821
            1.259500	            6.974247	         1163.050491	          -73.262904	           -0.264165	            0.006123	           -0.383411	            0.008717	            1.453664	           -0.091569	           38.406285	         1036.662506	           72.243296	           -0.286179	            0.005318	           -0.660679	           -0.000678	           -0.018305	           -0.001276
            1.260000	            7.433697	         1157.462252	          -73.288004	           -0.264010	            0.006124	           -0.383543	            0.010474	            1.630907	           -0.103266	           36.545540	         1032.973260	           72.137096	           -0.286099	            0.005319	           -0.660694	            0.020575	            0.581566	            0.040613
            1.260500	            7.983922	         1151.875848	          -73.680178	           -0.263973	            0.006125	           -0.383740	            0.011479	            1.656144	           -0.105936	           35.155587	         1028.551912	           71.183362	           -0.286070	            0.005318	           -0.660572	            0.037571	            1.099228	            0.076075
            1.261000	            8.077423	         1147.547720	          -73.286242	           -0.263880	            0.006124	           -0.383605	            0.010681	            1.517487	           -0.096912	           33.948476	         1025.419450	           70.468781	           -0.285860	            0.005320	           -0.660680	            0.042409	            1.280966	            0.088030
            1.261500	            7.530682	         1143.396890	          -72.247981	           -0.263662	            0.006124	           -0.383493	            0.008652	            1.313606	           -0.083003	           33.641344	         1019.529323	           69.415476	           -0.285812	            0.005318	           -0.660302	            0.029699	            0.900059	            0.061281
            1.262000	            5.931185	         1136.540058	          -70.760114	           -0.263616	            0.006125	           -0.383751	            0.006253	            1.198234	           -0.074601	           34.501515	         1014.747813	           68.459472	           -0.285796	            0.005318	           -0.660269	            0.006125	            0.180134	            0.012153
            1.262500	            5.248399	         1131.125087	          -69.222504	           -0.263446	            0.006125	           -0.383843	            0.006332	            1.364739	           -0.083519	           35.221110	         1009.965963	           67.456599	           -0.285688	            0.005318	           -0.660188	           -0.008191	           -0.234869	           -0.015687
            1.263000	            4.977108	         1126.072802	          -68.097069	           -0.263399	            0.006125	           -0.383744	            0.006686	            1.512798	           -0.091484	           34.908038	         1005.732708	           66.503064	           -0.285417	            0.005319	           -0.660161	           -0.002569	           -0.074015	           -0.004894
            1.263500	            5.621785	         1120.301279	          -67.389703	           -0.263204	            0.006125	           -0.383741	            0.008242	            1.642489	           -0.098801	           33.988114	         1000.943218	           66.017098	           -0.285513	            0.005319	           -0.660045	            0.013772	            0.405591	            0.026751
            1.264000	            6.585037	         1114.173354	          -67.647649	           -0.263094	            0.006125	           -0.383851	            0.009728	            1.645932	           -0.099934	           32.135825	          994.861344	           65.480003	           -0.285434	            0.005318	           -0.659817	            0.029277	            0.906366	            0.059655
            1.264500	            7.136484	         1107.503403	          -67.631762	           -0.263104	            0.006126	           -0.384049	            0.010055	            1.560488	           -0.095294	           30.891831	          988.966541	           64.755594	           -0.285318	            0.005318	           -0.659672	            0.031394	            1.005054	            0.065809
            1.265000	            7.002531	         1101.009805	          -66.696261	           -0.262899	            0.006126	           -0.384006	            0.009182	            1.443682	           -0.087454	           30.535210	          983.812519	           63.751865	           -0.285209	            0.005318	           -0.659651	            0.020062	            0.646375	            0.041886
            1.265500	            6.181942	         1093.973492	          -65.394541	           -0.262882	            0.006127	           -0.384150	            0.008169	            1.445531	           -0.086410	           30.975682	          978.477461	           62.700213	           -0.285075	            0.005318	           -0.659529	            0.001438	            0.045409	            0.002910
            1.266000	            4.995550	         1088.016918	          -63.628706	           -0.262728	            0.006127	           -0.384132	            0.006742	            1.468473	           -0.085878	           31.277560	          972.589746	           61.552793	           -0.285109	            0.005318	           -0.659449	           -0.006256	           -0.194545	           -0.012312
            1.266500	            4.633829	         1081.700894	          -62.095756	           -0.262472	            0.006127	           -0.384147	            0.006888	            1.607973	           -0.092307	           31.765623	          967.069985	           60.688176	           -0.284812	            0.005319	           -0.659344	           -0.003751	           -0.114186	           -0.007166
            1.267000	            4.910886	         1074.489141	          -61.852214	           -0.262430	            0.006127	           -0.384234	            0.007295	            1.596146	           -0.091881	           31.129297	          961.546165	           59.824037	           -0.284773	            0.005319	           -0.659281	            0.013069	            0.403699	            0.025117
            1.267500	            5.371609	         1066.916437	          -61.518969	           -0.262360	            0.006128	           -0.384310	            0.007515	            1.492590	           -0.086064	           29.839288	          955.465774	           59.474416	           -0.284699	            0.005319	           -0.659278	            0.025435	            0.814439	            0.050696
            1.268000	            6.381878	         1059.344823	          -61.416380	           -0.262242	            0.006128	           -0.384484	            0.009046	            1.501488	           -0.087050	           28.456885	          949.016808	           59.076592	           -0.284655	            0.005319	           -0.659166	            0.022973	            0.766130	            0.047692
